<control>
default_path=/home/debian/linuxaudio/NDK/samples/kicks/kd14bop/snare_off/cls\

<global>

//ampeg_attack=0.001
//ampeg_release=0.15
//ampeg_dynamic=1
loop_mode=one_shot


<group> //Begin Group for entire instrument

<region>
sample=kd14bop_cls_001.wav
lokey=60
hikey=60
pitch_keycenter=60
lovel=0
hivel=2


<region>
sample=kd14bop_cls_002.wav
lokey=60
hikey=60
pitch_keycenter=60
lovel=3
hivel=5


<region>
sample=kd14bop_cls_003.wav
lokey=60
hikey=60
pitch_keycenter=60
lovel=6
hivel=8


<region>
sample=kd14bop_cls_004.wav
lokey=60
hikey=60
pitch_keycenter=60
lovel=9
hivel=11


<region>
sample=kd14bop_cls_005.wav
lokey=60
hikey=60
pitch_keycenter=60
lovel=12
hivel=14


<region>
sample=kd14bop_cls_006.wav
lokey=60
hikey=60
pitch_keycenter=60
lovel=15
hivel=17


<region>
sample=kd14bop_cls_007.wav
lokey=60
hikey=60
pitch_keycenter=60
lovel=18
hivel=20


<region>
sample=kd14bop_cls_008x.wav
lokey=60
hikey=60
pitch_keycenter=60
lovel=21
hivel=23


<region>
sample=kd14bop_cls_009.wav
lokey=60
hikey=60
pitch_keycenter=60
lovel=24
hivel=26


<region>
sample=kd14bop_cls_010.wav
lokey=60
hikey=60
pitch_keycenter=60
lovel=27
hivel=29


<region>
sample=kd14bop_cls_011.wav
lokey=60
hikey=60
pitch_keycenter=60
lovel=30
hivel=33

<region>
sample=kd14bop_cls_012.wav
lokey=60
hikey=60
pitch_keycenter=60
lovel=34
hivel=36


<region>
sample=kd14bop_cls_013.wav
lokey=60
hikey=60
pitch_keycenter=60
lovel=37
hivel=39


<region>
sample=kd14bop_cls_014.wav
lokey=60
hikey=60
pitch_keycenter=60
lovel=40
hivel=42


<region>
sample=kd14bop_cls_015.wav
lokey=60
hikey=60
pitch_keycenter=60
lovel=43
hivel=45


<region>
sample=kd14bop_cls_016.wav
lokey=60
hikey=60
pitch_keycenter=60
lovel=46
hivel=48


<region>
sample=kd14bop_cls_017.wav
lokey=60
hikey=60
pitch_keycenter=60
lovel=49
hivel=51


<region>
sample=kd14bop_cls_018.wav
lokey=60
hikey=60
pitch_keycenter=60
lovel=52
hivel=54


<region>
sample=kd14bop_cls_019.wav
lokey=60
hikey=60
pitch_keycenter=60
lovel=55
hivel=57


<region>
sample=kd14bop_cls_020.wav
lokey=60
hikey=60
pitch_keycenter=60
lovel=58
hivel=60


<region>
sample=kd14bop_cls_021.wav
lokey=60
hikey=60
pitch_keycenter=60
lovel=61
hivel=64


<region>
sample=kd14bop_cls_022.wav
lokey=60
hikey=60
pitch_keycenter=60
lovel=65
hivel=67


<region>
sample=kd14bop_cls_023.wav
lokey=60
hikey=60
pitch_keycenter=60
lovel=68
hivel=70


<region>
sample=kd14bop_cls_024.wav
lokey=60
hikey=60
pitch_keycenter=60
lovel=71
hivel=73


<region>
sample=kd14bop_cls_025x.wav
lokey=60
hikey=60
pitch_keycenter=60
lovel=74
hivel=76


<region>
sample=kd14bop_cls_026.wav
lokey=60
hikey=60
pitch_keycenter=60
lovel=77
hivel=79


<region>
sample=kd14bop_cls_027.wav
lokey=60
hikey=60
pitch_keycenter=60
lovel=80
hivel=82


<region>
sample=kd14bop_cls_028.wav
lokey=60
hikey=60
pitch_keycenter=60
lovel=83
hivel=85


<region>
sample=kd14bop_cls_029.wav
lokey=60
hikey=60
pitch_keycenter=60
lovel=86
hivel=88


<region>
sample=kd14bop_cls_030.wav
lokey=60
hikey=60
pitch_keycenter=60
lovel=89
hivel=91


<region>
sample=kd14bop_cls_031.wav
lokey=60
hikey=60
pitch_keycenter=60
lovel=92
hivel=95


<region>
sample=kd14bop_cls_032x.wav
lokey=60
hikey=60
pitch_keycenter=60
lovel=96
hivel=98


<region>
sample=kd14bop_cls_033x.wav
lokey=60
hikey=60
pitch_keycenter=60
lovel=99
hivel=101


<region>
sample=kd14bop_cls_034.wav
lokey=60
hikey=60
pitch_keycenter=60
lovel=102
hivel=104


<region>
sample=kd14bop_cls_035x.wav
lokey=60
hikey=60
pitch_keycenter=60
lovel=105
hivel=107


<region>
sample=kd14bop_cls_036.wav
lokey=60
hikey=60
pitch_keycenter=60
lovel=108
hivel=110


<region>
sample=kd14bop_cls_037x.wav
lokey=60
hikey=60
pitch_keycenter=60
lovel=111
hivel=113


<region>
sample=kd14bop_cls_038.wav
lokey=60
hikey=60
pitch_keycenter=60
lovel=114
hivel=116


<region>
sample=kd14bop_cls_039.wav
lokey=60
hikey=60
pitch_keycenter=60
lovel=117
hivel=119


<region>
sample=kd14bop_cls_040.wav
lokey=60
hikey=60
pitch_keycenter=60
lovel=120
hivel=122


<region>
sample=kd14bop_cls_041.wav
lokey=60
hikey=60
pitch_keycenter=60
lovel=123
hivel=127


